<svg xmlns="http://www.w3.org/2000/svg" viewBox="0 0 32 32" fill="none">
  <defs>
    <linearGradient id="bg" x1="0" y1="0" x2="32" y2="32" gradientUnits="userSpaceOnUse">
      <stop stop-color="#0a0c16"/>
      <stop offset="1" stop-color="#12152a"/>
    </linearGradient>
    <filter id="glow" x="-50%" y="-50%" width="200%" height="200%">
      <feGaussianBlur stdDeviation="1.2" result="b"/>
      <feMerge>
        <feMergeNode in="b"/>
        <feMergeNode in="SourceGraphic"/>
      </feMerge>
    </filter>
  </defs>
  <rect width="32" height="32" rx="7" fill="url(#bg)"/>
  <g stroke="#3df5ff" stroke-width="1" stroke-linecap="square" opacity="0.35">
    <path d="M4 8h24M4 16h24M4 24h24"/>
    <path d="M8 4v24M16 4v24M24 4v24"/>
  </g>
  <g stroke="#3df5ff" stroke-width="1.25" fill="none" stroke-linecap="square">
    <path d="M5 5h4M5 5v4"/>
    <path d="M27 5h-4M27 5v4"/>
    <path d="M5 27h4M5 27v-4"/>
    <path d="M27 27h-4M27 27v-4"/>
  </g>
  <circle cx="16" cy="16" r="7" fill="#3df5ff" opacity="0.15"/>
  <circle cx="16" cy="16" r="3.5" fill="#3df5ff" filter="url(#glow)"/>
  <circle cx="16" cy="16" r="1.25" fill="#e8fffe"/>
</svg>
